<svg width="158" height="23" viewBox="0 0 158 23" fill="none" xmlns="http://www.w3.org/2000/svg">
<g clip-path="url(#clip0_15_812)">
<path d="M13.5755 2.31607L12.2814 8.40604L12.1799 8.93891L12.0531 8.98966L0 12.4914L10.5559 0.615959C11.8501 -0.830408 14.1592 0.489085 13.6009 2.31607H13.5755Z" fill="white"/>
<path d="M21.1119 9.57328L9.36333 22.0323L12.0531 9.01503L12.1799 8.96428L12.2814 8.43141L19.0819 6.4268C20.985 5.66555 22.5583 8.07616 21.1119 9.59866V9.57328Z" fill="white"/>
<path d="M45.6114 6.81347H42.4649C42.4649 6.1791 42.3381 5.64622 42.1097 5.18948C41.8559 4.73273 41.5514 4.37748 41.1454 4.07298C40.7394 3.76849 40.2827 3.56549 39.7752 3.43861C39.2677 3.31174 38.7348 3.23561 38.202 3.23561C37.6691 3.23561 37.1108 3.31174 36.578 3.43861C36.0451 3.56549 35.5883 3.76849 35.157 3.99686C34.751 4.25061 34.3957 4.52973 34.142 4.88498C33.8882 5.24023 33.7614 5.64622 33.7614 6.0776C33.7614 6.78809 34.0659 7.37171 34.6495 7.80309C35.2331 8.23446 35.969 8.61508 36.8825 8.91958C37.796 9.22408 38.7348 9.52858 39.7498 9.83308C40.7648 10.1376 41.7291 10.4928 42.6172 10.9496C43.5053 11.4063 44.2412 11.9646 44.8502 12.6497C45.4338 13.3348 45.7383 14.2229 45.7383 15.3394C45.7383 16.329 45.5353 17.2172 45.1039 17.9784C44.6725 18.7397 44.1143 19.3994 43.4038 19.9323C42.6933 20.4651 41.8559 20.8711 40.9171 21.1756C39.9782 21.4548 38.9886 21.607 37.9482 21.607C36.984 21.607 36.0197 21.4801 35.0555 21.201C34.0912 20.9219 33.2539 20.5159 32.4926 19.9576C31.7314 19.3994 31.1224 18.6889 30.6656 17.8008C30.2089 16.9127 29.9551 15.8723 29.9551 14.6543H33.1016C33.1016 15.3394 33.2539 15.9484 33.533 16.4559C33.8121 16.9634 34.1927 17.3948 34.6495 17.7247C35.1062 18.0545 35.6137 18.2829 36.1973 18.4605C36.781 18.6128 37.3646 18.7143 37.9482 18.7143C38.5065 18.7143 39.0393 18.6382 39.5976 18.5113C40.1558 18.3844 40.6633 18.1814 41.0947 17.953C41.5514 17.6993 41.9067 17.3948 42.1858 17.0395C42.4649 16.6843 42.5918 16.2529 42.5918 15.7962C42.5918 15.0603 42.2873 14.5021 41.7037 14.0961C41.1201 13.6901 40.3842 13.3348 39.4707 13.0557C38.5826 12.7512 37.6183 12.4721 36.6033 12.1929C35.5883 11.9138 34.6241 11.5586 33.736 11.1018C32.8479 10.6451 32.112 10.0614 31.503 9.32558C30.894 8.58971 30.6149 7.62546 30.6149 6.40747C30.6149 5.44323 30.8432 4.55511 31.2746 3.79386C31.706 3.03261 32.2896 2.39824 33.0001 1.89075C33.7106 1.38325 34.548 1.00263 35.4615 0.723503C36.375 0.469754 37.2885 0.317505 38.2273 0.317505C39.1662 0.317505 40.0289 0.444379 40.9171 0.698128C41.8052 0.951876 42.5918 1.35787 43.2769 1.89075C43.962 2.42362 44.5203 3.10874 44.9263 3.92073C45.3323 4.73273 45.5607 5.69697 45.5607 6.78809L45.6114 6.81347Z" fill="white"/>
<path d="M37.9736 21.9623C36.984 21.9623 35.969 21.81 35.0048 21.5309C34.0151 21.2518 33.127 20.8204 32.3404 20.2368C31.5538 19.6532 30.9194 18.8919 30.4119 17.9784C29.9298 17.0649 29.676 15.9484 29.676 14.6797V14.3752H33.4569V14.6797C33.4569 15.3141 33.5838 15.8723 33.8375 16.3291C34.0913 16.8112 34.4465 17.1918 34.8525 17.4963C35.2839 17.8008 35.766 18.0292 36.2989 18.1814C37.3646 18.4859 38.4557 18.4859 39.5469 18.2322C40.0797 18.1053 40.5619 17.9277 40.9678 17.6993C41.3738 17.4709 41.7037 17.1918 41.9575 16.8619C42.1858 16.5574 42.3127 16.2022 42.3127 15.7962C42.3127 15.1618 42.059 14.7051 41.5768 14.3498C41.0186 13.9692 40.2827 13.6139 39.4454 13.3348C38.5826 13.0557 37.6184 12.7512 36.578 12.4974C35.5376 12.2183 34.548 11.8377 33.6345 11.381C32.6956 10.8988 31.9344 10.2645 31.3 9.52859C30.6657 8.74197 30.3358 7.7016 30.3358 6.40748C30.3358 5.39249 30.5642 4.45362 31.0209 3.64162C31.4777 2.855 32.0866 2.16988 32.8479 1.63701C33.5838 1.10414 34.4465 0.698141 35.3854 0.444393C37.2377 -0.0884792 39.1916 -0.0884792 41.0186 0.444393C41.9321 0.698141 42.7695 1.12951 43.48 1.68776C44.2158 2.24601 44.7994 2.9565 45.2308 3.81925C45.6622 4.68199 45.8906 5.69699 45.8906 6.83886V7.14335H42.1097V6.83886C42.1097 6.25523 42.0082 5.77311 41.7798 5.36712C41.5515 4.96112 41.2723 4.63124 40.9171 4.35212C40.5618 4.073 40.1305 3.89537 39.6484 3.7685C38.6587 3.51475 37.593 3.51475 36.6287 3.7685C36.1466 3.89537 35.6899 4.073 35.2839 4.30137C34.9033 4.52974 34.5988 4.78349 34.3704 5.11337C34.1674 5.41786 34.0405 5.74774 34.0405 6.12836C34.0405 6.73736 34.2943 7.21948 34.8018 7.6001C35.36 8.0061 36.0705 8.38672 36.9332 8.69122C37.8214 8.99572 38.7856 9.30022 39.8006 9.60472C40.841 9.90921 41.8306 10.2898 42.7441 10.7466C43.6576 11.2033 44.4442 11.8123 45.0786 12.5228C45.7129 13.2587 46.0428 14.2483 46.0428 15.4156C46.0428 16.4559 45.8144 17.3948 45.3577 18.2068C44.9009 19.0188 44.3173 19.7039 43.5561 20.2622C42.8202 20.8204 41.9575 21.2518 40.9678 21.5563C40.0036 21.8608 38.9632 21.9876 37.8975 21.9876L37.9736 21.9623ZM30.3104 15.0349C30.3358 16.0753 30.5642 16.9634 30.9702 17.6993C31.4015 18.5367 32.0105 19.2218 32.6956 19.7293C33.4061 20.2622 34.2435 20.6682 35.157 20.9219C37.0601 21.4548 39.0647 21.4294 40.841 20.9219C41.7545 20.6428 42.5411 20.2622 43.2262 19.7293C43.9113 19.2218 44.4442 18.5874 44.8502 17.8769C45.2562 17.1664 45.4592 16.3291 45.4592 15.3902C45.4592 14.3752 45.2054 13.5632 44.6472 12.9034C44.089 12.2437 43.3785 11.7108 42.5157 11.2795C41.653 10.8481 40.6887 10.4675 39.6991 10.1883C38.6841 9.88384 37.6945 9.57934 36.8064 9.27484C35.8929 8.94497 35.1063 8.56435 34.4973 8.1076C33.8375 7.6001 33.4823 6.94036 33.4823 6.12836C33.4823 5.62086 33.6345 5.13874 33.9136 4.73274C34.1928 4.35212 34.5734 4.02225 35.0048 3.74312C35.4361 3.48938 35.9436 3.28638 36.5019 3.1595C37.5676 2.88038 38.7349 2.88038 39.826 3.1595C40.3842 3.31175 40.8917 3.54013 41.2977 3.84462C41.7291 4.1745 42.0843 4.58049 42.3381 5.06262C42.5665 5.46861 42.6933 5.95074 42.7441 6.50898H45.2562C45.2308 5.59549 45.0278 4.78349 44.6726 4.09837C44.292 3.33713 43.7591 2.67738 43.0993 2.16988C42.4396 1.66239 41.6783 1.28176 40.841 1.02801C39.1155 0.545892 37.2885 0.545892 35.563 1.02801C34.6749 1.28176 33.8883 1.66239 33.2031 2.14451C32.518 2.62663 31.9598 3.23563 31.5538 3.94612C31.1478 4.65662 30.9448 5.46861 30.9448 6.38211C30.9448 7.52398 31.2239 8.43747 31.7568 9.09722C32.315 9.78234 33.0255 10.366 33.8883 10.7973C34.751 11.2541 35.7153 11.6093 36.7049 11.8631C37.7452 12.1422 38.7095 12.4213 39.5976 12.7258C40.5111 13.0303 41.2977 13.3856 41.9067 13.8169C42.5918 14.2737 42.9217 14.9588 42.9217 15.7962C42.9217 16.3291 42.7695 16.8112 42.4396 17.2425C42.1351 17.6485 41.7545 17.9784 41.247 18.2575C40.7648 18.5113 40.232 18.7143 39.6484 18.8412C38.4304 19.1203 37.2377 19.1203 36.0705 18.7904C35.4615 18.6128 34.9033 18.359 34.4211 18.0038C33.939 17.6485 33.533 17.1918 33.2031 16.6336C32.9494 16.1514 32.7971 15.5932 32.7464 14.9842H30.2343L30.3104 15.0349Z" fill="white"/>
<path d="M57.3196 21.5817C57.3196 21.5817 57.1166 21.607 56.9136 21.6324C56.736 21.6324 56.533 21.6324 56.33 21.6578C56.127 21.6578 55.924 21.6578 55.7464 21.6578H55.315C53.5387 21.6578 52.2954 21.201 51.5341 20.3129C50.7729 19.3994 50.4176 18.0292 50.4176 16.1514V8.36137H47.3219V6.48363C47.8294 6.48363 48.3369 6.4075 48.8444 6.28063C49.3519 6.15375 49.8086 5.92538 50.1893 5.57013C50.5953 5.24026 50.8998 4.78351 51.1535 4.17452C51.4073 3.59089 51.5088 2.85502 51.5088 1.94153H53.5387V5.69701H57.3957V8.33599H53.5387V16.0753C53.5387 17.0649 53.7417 17.7247 54.1224 18.0799C54.503 18.4098 55.112 18.5874 55.9494 18.5874H57.6495L57.2942 21.5817H57.3196Z" fill="white"/>
<path d="M55.7718 21.9877H55.3404C53.488 21.9877 52.1432 21.5056 51.3312 20.5159C50.5445 19.5517 50.1386 18.0799 50.1386 16.1515V8.66587H47.0428V6.15376H47.3473C47.8294 6.15376 48.3116 6.10301 48.7937 5.97614C49.2504 5.84927 49.6564 5.64627 50.0117 5.34177C50.3669 5.03727 50.6714 4.6059 50.8744 4.07303C51.1028 3.51478 51.2043 2.82966 51.2043 1.96691V1.66241H53.8687V5.41789H57.7256V8.69125H53.8687V16.1007C53.8687 16.9888 54.0209 17.5978 54.3508 17.8516C54.6807 18.1307 55.2135 18.2829 55.9748 18.2829H58.0301L57.5988 21.8354L57.3958 21.8862C57.3958 21.8862 57.142 21.9369 56.939 21.9369H56.3554C56.1524 21.9877 55.9494 21.9877 55.7718 21.9877ZM47.6518 8.05688H50.7475V16.1768C50.7475 17.9531 51.1028 19.2979 51.8133 20.1353C52.4984 20.9473 53.691 21.3787 55.3404 21.3787H55.7718C55.9494 21.3787 56.127 21.3787 56.33 21.3787H56.9136C56.9136 21.3787 57.0151 21.3533 57.0405 21.3279L57.345 18.9427H56.0001C55.0866 18.9427 54.4015 18.7397 53.9702 18.3591C53.5134 17.9531 53.285 17.2172 53.285 16.1261V8.08225H57.142V6.07764H53.285V2.29679H51.864C51.8387 3.08341 51.7118 3.76853 51.4834 4.32677C51.2297 4.96115 50.8744 5.46864 50.443 5.82389C50.0117 6.17914 49.5042 6.45826 48.9713 6.58514C48.5399 6.68664 48.1086 6.76276 47.6772 6.78814V8.05688H47.6518Z" fill="white"/>
<path d="M70.0174 19.7292C69.4592 20.2875 68.7487 20.7696 67.9113 21.1249C67.074 21.4801 66.1097 21.6831 64.9932 21.6831C64.2066 21.6831 63.4707 21.5562 62.7602 21.3279C62.0751 21.0995 61.4661 20.7696 60.9586 20.3636C60.4511 19.9576 60.0451 19.4501 59.766 18.8665C59.4869 18.2829 59.3346 17.6485 59.3346 16.938C59.3346 16.1514 59.4869 15.4409 59.8167 14.8319C60.1466 14.2229 60.578 13.7154 61.1362 13.284C61.6945 12.8527 62.3289 12.5482 63.0647 12.3452C63.8006 12.1422 64.5618 12.0153 65.3738 12.0153H66.9217C67.2008 12.0153 67.5307 11.9899 67.9113 11.9138C68.2919 11.8377 68.6472 11.7362 69.0024 11.5839C69.3577 11.4317 69.6622 11.2287 69.8906 10.9749C70.1189 10.7212 70.2458 10.4167 70.2458 10.0868C70.2458 9.78231 70.1443 9.52856 69.9667 9.30018C69.7891 9.07181 69.5353 8.89419 69.2562 8.74194C68.9517 8.58969 68.6218 8.46281 68.2412 8.38669C67.8606 8.31056 67.4546 8.25981 67.0232 8.25981C66.5411 8.25981 66.059 8.31056 65.6022 8.41206C65.1455 8.51356 64.7141 8.66581 64.3335 8.89419C63.9528 9.09718 63.6484 9.37631 63.42 9.70618C63.1916 10.0361 63.0647 10.4167 63.0647 10.8227H59.9182C59.9182 9.90918 60.1212 9.12256 60.5272 8.43744C60.9332 7.75232 61.4661 7.19407 62.1005 6.73732C62.7602 6.28058 63.4961 5.9507 64.3335 5.72233C65.1708 5.49396 66.0082 5.39246 66.8963 5.39246C67.7845 5.39246 68.5457 5.49396 69.3069 5.69695C70.0682 5.89995 70.7787 6.20445 71.4131 6.61045C72.0221 7.01645 72.5296 7.52394 72.9102 8.10757C73.2908 8.69119 73.4684 9.40168 73.4684 10.2137C73.4684 11.0257 73.2654 11.6854 72.8594 12.2183C72.4534 12.7765 71.9459 13.2079 71.3116 13.5378C70.6772 13.8677 70.0174 14.096 69.3069 14.2483C68.5964 14.4005 67.9113 14.4513 67.277 14.4513H65.1962C64.8917 14.4513 64.5872 14.502 64.2573 14.5782C63.9529 14.6797 63.6484 14.8065 63.3692 14.9842C63.0901 15.1618 62.8617 15.3648 62.7095 15.6439C62.5319 15.8976 62.4557 16.2275 62.4557 16.5828C62.4557 16.9888 62.5572 17.344 62.7856 17.6231C63.014 17.9023 63.2931 18.1306 63.5976 18.3336C63.9021 18.5366 64.2827 18.6381 64.638 18.7396C65.0186 18.8158 65.3485 18.8665 65.653 18.8665C66.1097 18.8665 66.5918 18.7904 67.1247 18.6381C67.6576 18.4859 68.1651 18.2575 68.6726 17.9784C69.1547 17.6993 69.5861 17.344 69.9159 16.8873C70.2712 16.4559 70.4742 15.9484 70.5249 15.4155H72.9863V21.3532H70.2204L69.9159 19.7039L70.0174 19.7292Z" fill="white"/>
<path d="M64.9932 21.9876C64.1812 21.9876 63.3946 21.8607 62.6587 21.6324C61.9482 21.3786 61.2885 21.0487 60.7556 20.6174C60.2228 20.186 59.7914 19.6531 59.4869 19.0188C59.1824 18.3844 59.0301 17.6993 59.0301 16.9634C59.0301 16.126 59.2078 15.3648 59.563 14.705C59.9183 14.0707 60.375 13.5124 60.9586 13.0557C61.5422 12.6243 62.202 12.2944 62.9886 12.066C63.7499 11.8377 64.5619 11.7362 65.3992 11.7362H66.9471C67.2008 11.7362 67.5307 11.7108 67.886 11.6347C68.2412 11.5586 68.5711 11.4571 68.9263 11.3302C69.2308 11.2033 69.51 11.0257 69.713 10.7973C69.8906 10.5943 69.9921 10.3913 69.9921 10.1122C69.9921 9.88381 69.916 9.68081 69.7891 9.52856C69.6368 9.35094 69.4338 9.17332 69.1801 9.04644C68.901 8.91957 68.5965 8.79269 68.2412 8.71657C67.4546 8.53894 66.5411 8.56432 65.7291 8.74194C65.2977 8.84344 64.8917 8.99569 64.5619 9.17332C64.232 9.35094 63.9529 9.60469 63.7499 9.88381C63.5469 10.1629 63.4707 10.4674 63.4707 10.8227V11.1272H59.6899V10.8227C59.6899 9.85844 59.9183 8.99569 60.3496 8.25982C60.781 7.54933 61.3392 6.94033 62.0244 6.48358C62.7095 6.02683 63.4707 5.67159 64.3335 5.44321C66.0082 4.98647 67.8352 4.98647 69.4846 5.41784C70.2966 5.62084 71.0324 5.95071 71.6922 6.38208C72.3519 6.81345 72.8848 7.34633 73.2908 7.9807C73.6968 8.64044 73.8998 9.40169 73.8998 10.2644C73.8998 11.1272 73.6714 11.8631 73.2401 12.472C72.8087 13.0557 72.2504 13.5378 71.5907 13.8677C70.9563 14.1975 70.2458 14.4513 69.4846 14.6035C68.7487 14.7558 68.0382 14.8319 67.4038 14.8319H65.3231C65.044 14.8319 64.7649 14.8827 64.4857 14.9588C64.2066 15.0349 63.9275 15.1618 63.6737 15.314C63.4454 15.4663 63.2424 15.6439 63.0901 15.8723C62.9632 16.0753 62.8871 16.329 62.8871 16.6335C62.8871 16.9634 62.9632 17.2425 63.1662 17.4709C63.3692 17.7246 63.5976 17.9276 63.9021 18.0799C64.2066 18.2575 64.5365 18.359 64.8664 18.4351C65.2216 18.5113 65.5515 18.562 65.8306 18.562C66.2366 18.562 66.7187 18.4859 67.2262 18.3336C67.7337 18.1814 68.2412 17.9784 68.698 17.6993C69.1547 17.4455 69.5353 17.0903 69.8652 16.6843C70.1697 16.2783 70.3473 15.8723 70.3981 15.3648V15.0857H73.4938V21.6577H70.1443L69.8906 20.3129C69.3831 20.7442 68.7995 21.0995 68.1143 21.3786C67.2516 21.7592 66.2112 21.9622 65.0694 21.9622L64.9932 21.9876ZM65.3738 12.3705C64.5872 12.3705 63.8514 12.472 63.1409 12.675C62.4557 12.878 61.8467 13.1825 61.3139 13.5632C60.8064 13.9438 60.4004 14.4259 60.0959 14.9842C59.7914 15.5424 59.6391 16.2021 59.6391 16.938C59.6391 17.5724 59.766 18.1814 60.0451 18.7143C60.2989 19.2471 60.6795 19.7293 61.1362 20.0845C61.6184 20.4651 62.1766 20.7696 62.8364 20.998C63.4961 21.2264 64.2066 21.3279 64.9679 21.3279C66.0336 21.3279 66.9725 21.1502 67.7591 20.795C68.5457 20.4397 69.2308 20.0084 69.7637 19.4501L70.1951 19.0188L70.5503 20.998H72.7326V15.6947H70.8548C70.7533 16.1768 70.5503 16.6335 70.2204 17.0395C69.8398 17.4963 69.4085 17.9023 68.8756 18.2068C68.3681 18.5113 67.8352 18.7396 67.2516 18.8919C66.6933 19.0441 66.1605 19.1456 65.6784 19.1456C65.3485 19.1456 64.9932 19.0949 64.5872 19.0188C64.1812 18.9426 63.8006 18.7904 63.4454 18.5874C63.0901 18.3844 62.7856 18.1306 62.5319 17.8008C62.2527 17.4709 62.1259 17.0395 62.1259 16.5574C62.1259 16.126 62.2274 15.7454 62.4304 15.4409C62.6334 15.1364 62.8871 14.8827 63.1916 14.6797C63.4961 14.502 63.826 14.3498 64.1559 14.2483C64.5111 14.1468 64.841 14.096 65.1709 14.096H67.2516C67.8606 14.096 68.5203 14.0199 69.2055 13.893C69.8906 13.7662 70.5503 13.5378 71.1339 13.2333C71.7176 12.9288 72.1997 12.5228 72.5549 12.0153C72.9356 11.5078 73.1132 10.9242 73.1132 10.1883C73.1132 9.45244 72.9356 8.79269 72.6057 8.23445C72.2504 7.6762 71.7937 7.19408 71.2101 6.81345C70.6264 6.43283 69.9413 6.12833 69.2055 5.95071C67.6576 5.54471 65.9575 5.57009 64.3842 5.97608C63.5976 6.17908 62.8617 6.50896 62.2527 6.94033C61.6437 7.34633 61.1363 7.90457 60.7556 8.53894C60.4258 9.09719 60.2481 9.73156 60.1974 10.4421H62.7095C62.7602 10.0868 62.8871 9.73156 63.0901 9.45244C63.3439 9.09719 63.6991 8.79269 64.1051 8.56432C64.5111 8.33595 64.9679 8.15832 65.45 8.05682C66.3635 7.85382 67.3531 7.82845 68.2412 8.03145C68.6472 8.10757 69.0278 8.23445 69.3323 8.41207C69.6622 8.58969 69.9413 8.79269 70.1443 9.04644C70.3727 9.32556 70.4996 9.65544 70.4996 10.0361C70.4996 10.4674 70.3473 10.8481 70.0428 11.1526C69.7637 11.4317 69.4338 11.6601 69.0278 11.8377C68.6472 11.9899 68.2666 12.1168 67.8606 12.1929C67.4546 12.269 67.1247 12.2944 66.8202 12.2944H65.2724L65.3738 12.3705Z" fill="white"/>
<path d="M83.6541 9.83314C83.2988 9.40177 82.9182 9.09727 82.4868 8.89427C82.0555 8.69127 81.6495 8.58977 81.2435 8.58977C80.8882 8.58977 80.5076 8.66589 80.1524 8.81814C79.7971 8.97039 79.4926 9.17339 79.2135 9.45252C78.9344 9.73164 78.7314 10.0615 78.5791 10.4675C78.4269 10.8735 78.3254 11.3303 78.3254 11.8631V21.6578H75.1789V6.02691H78.0209L78.3254 7.72703C78.8836 7.16878 79.5687 6.68666 80.33 6.30603C81.0912 5.92541 81.8779 5.72241 82.7152 5.72241C83.375 5.72241 83.9586 5.87466 84.5168 6.15378C85.0751 6.43291 85.5318 6.88965 85.8617 7.49865L83.6033 9.83314H83.6541Z" fill="white"/>
<path d="M78.6806 21.9877H74.8998V5.69702H78.3254L78.5791 7.11801C79.0613 6.68663 79.6195 6.33139 80.2285 6.02689C81.0151 5.62089 81.8779 5.41789 82.7406 5.39252C83.4511 5.39252 84.1109 5.54477 84.6945 5.84926C85.3035 6.15376 85.811 6.66126 86.1916 7.32101L86.3185 7.524L83.6541 10.2899L83.4257 10.0107C83.1212 9.63012 82.766 9.32562 82.3854 9.148C81.6495 8.79275 80.9898 8.79275 80.33 9.07187C80.0255 9.19875 79.7464 9.40174 79.4926 9.63012C79.2643 9.88387 79.0613 10.1884 78.909 10.5436C78.7568 10.8989 78.6806 11.3302 78.6806 11.8377V21.9623V21.9877ZM75.5342 21.3533H78.0463V11.8631C78.0463 11.3049 78.1478 10.772 78.3254 10.3406C78.503 9.90924 78.7314 9.52862 79.0359 9.22412C79.315 8.91962 79.6703 8.69125 80.0763 8.51362C80.9136 8.15838 81.7764 8.18375 82.6645 8.58975C83.0451 8.76737 83.375 9.02112 83.7049 9.35099L85.5572 7.42251C85.2527 6.96576 84.8975 6.63589 84.4661 6.40751C83.9586 6.15376 83.4004 6.02689 82.7914 6.02689C82.0048 6.02689 81.2435 6.22989 80.533 6.58514C79.7971 6.94038 79.1628 7.39713 78.6299 7.95538L78.097 8.51362V7.727L77.8433 6.30601H75.5849V21.3279L75.5342 21.3533Z" fill="white"/>
<path d="M97.6207 21.5817C97.6207 21.5817 97.4177 21.607 97.2147 21.6324C97.037 21.6324 96.834 21.6324 96.631 21.6578C96.428 21.6578 96.225 21.6578 96.0474 21.6578H95.616C93.8398 21.6578 92.5964 21.201 91.8352 20.3129C91.0739 19.3994 90.7187 18.0292 90.7187 16.1514V8.36137H87.623V6.48363C88.1305 6.48363 88.638 6.4075 89.1455 6.28063C89.6529 6.15375 90.1097 5.92538 90.4903 5.57013C90.8963 5.24026 91.2008 4.78351 91.4546 4.17452C91.7083 3.59089 91.8098 2.85502 91.8098 1.94153H93.8398V5.69701H97.6968V8.33599H93.8398V16.0753C93.8398 17.0649 94.0428 17.7247 94.4234 18.0799C94.804 18.4098 95.413 18.5874 96.2504 18.5874H97.9505L97.5953 21.5817H97.6207Z" fill="white"/>
<path d="M96.0474 21.9877H95.6161C93.7637 21.9877 92.4188 21.5056 91.6068 20.5159C90.8202 19.5517 90.4142 18.0799 90.4142 16.1515V8.66587H87.3185V6.15376H87.623C88.1051 6.15376 88.5872 6.10301 89.0693 5.97614C89.5261 5.84927 89.9321 5.64627 90.2873 5.34177C90.6426 5.03727 90.9471 4.6059 91.1501 4.07303C91.3785 3.51478 91.48 2.82966 91.48 1.96691V1.66241H94.1443V5.41789H98.0013V8.69125H94.1443V16.1007C94.1443 16.9888 94.2966 17.5978 94.6264 17.8516C94.9563 18.1307 95.4892 18.2829 96.2504 18.2829H98.3058L97.8744 21.8354L97.6714 21.8862C97.6714 21.8862 97.4177 21.9369 97.2147 21.9369H96.631C96.4281 21.9877 96.2251 21.9877 96.0474 21.9877ZM87.9529 8.05688H91.0486V16.1768C91.0486 17.9531 91.4038 19.2979 92.1143 20.1353C92.7994 20.9473 93.9921 21.3787 95.6414 21.3787H96.0728C96.2504 21.3787 96.4281 21.3787 96.631 21.3787H97.2147C97.2147 21.3787 97.3162 21.3533 97.3415 21.3279L97.646 18.9427H96.3012C95.3877 18.9427 94.7026 18.7397 94.2712 18.3591C93.8144 17.9531 93.5861 17.2172 93.5861 16.1261V8.08225H97.443V6.07764H93.5861V2.29679H92.1651C92.1397 3.08341 92.0128 3.76853 91.7845 4.32677C91.5307 4.96115 91.1755 5.46864 90.7441 5.82389C90.3127 6.17914 89.8052 6.45826 89.2723 6.58514C88.841 6.68664 88.4096 6.76276 87.9782 6.78814V8.05688H87.9529Z" fill="white"/>
<path d="M102.757 5.72238V14.9588C102.757 15.3902 102.833 15.8216 103.011 16.2783C103.188 16.7351 103.442 17.1411 103.772 17.5217C104.102 17.9023 104.533 18.2068 105.015 18.4352C105.523 18.6636 106.081 18.7904 106.741 18.7904C107.35 18.7904 107.908 18.6889 108.39 18.4606C108.872 18.2576 109.303 17.9531 109.659 17.5978C110.014 17.2426 110.293 16.8366 110.471 16.4052C110.674 15.9738 110.75 15.5424 110.75 15.1111V5.69701H113.896V21.3533H111.054L110.75 19.6532C110.141 20.2875 109.456 20.7697 108.669 21.1249C107.882 21.4802 107.07 21.6578 106.259 21.6578C104.127 21.6578 102.478 21.0742 101.336 19.8816C100.194 18.7143 99.6103 17.0396 99.6103 14.9081V5.67163H102.757V5.72238Z" fill="white"/>
<path d="M106.258 21.9876C104.051 21.9876 102.325 21.3533 101.107 20.1353C99.9148 18.8919 99.3058 17.1664 99.3058 14.9588V5.41785H103.087V14.9588C103.087 15.3394 103.163 15.7454 103.315 16.1768C103.467 16.5828 103.696 16.9888 104.026 17.3187C104.33 17.6485 104.711 17.953 105.167 18.156C106.055 18.562 107.35 18.5874 108.263 18.1814C108.72 17.9784 109.1 17.7247 109.43 17.3948C109.76 17.0649 110.014 16.7097 110.192 16.3037C110.369 15.8977 110.445 15.517 110.445 15.1364V5.41785H114.226V21.7085H110.801L110.547 20.3129C110.014 20.7696 109.43 21.1503 108.796 21.4294C107.984 21.81 107.121 21.9876 106.233 21.9876H106.258ZM99.9148 6.02684V14.9334C99.9148 16.9634 100.473 18.562 101.539 19.6785C102.605 20.795 104.203 21.3533 106.233 21.3533C107.02 21.3533 107.781 21.1756 108.517 20.8458C109.253 20.5159 109.938 20.0338 110.496 19.4248L110.927 18.968L111.283 21.0234H113.541V6.02684H111.029V15.111C111.029 15.5678 110.927 16.0499 110.724 16.532C110.521 17.0142 110.217 17.4202 109.836 17.8262C109.456 18.2068 108.999 18.5113 108.466 18.7396C107.375 19.2218 105.878 19.1964 104.838 18.7143C104.305 18.4605 103.848 18.1306 103.493 17.7247C103.137 17.3187 102.858 16.8619 102.681 16.3798C102.503 15.8977 102.402 15.4155 102.402 14.9334V6.02684H99.8894H99.9148Z" fill="white"/>
<path d="M126.213 19.7292C125.655 20.2875 124.945 20.7696 124.107 21.1249C123.27 21.4801 122.306 21.6831 121.189 21.6831C120.403 21.6831 119.667 21.5562 118.956 21.3279C118.271 21.0995 117.662 20.7696 117.155 20.3636C116.647 19.9576 116.241 19.4501 115.962 18.8665C115.683 18.2829 115.531 17.6485 115.531 16.938C115.531 16.1514 115.683 15.4409 116.013 14.8319C116.343 14.2229 116.774 13.7154 117.332 13.284C117.891 12.8527 118.525 12.5482 119.261 12.3452C119.997 12.1422 120.758 12.0153 121.57 12.0153H123.118C123.397 12.0153 123.727 11.9899 124.107 11.9138C124.488 11.8377 124.843 11.7362 125.198 11.5839C125.554 11.4317 125.858 11.2287 126.087 10.9749C126.315 10.7212 126.442 10.4167 126.442 10.0868C126.442 9.78231 126.34 9.52856 126.163 9.30018C125.985 9.07181 125.731 8.89419 125.452 8.74194C125.148 8.58969 124.818 8.46281 124.437 8.38669C124.057 8.31056 123.651 8.25981 123.219 8.25981C122.737 8.25981 122.255 8.31056 121.798 8.41206C121.342 8.51356 120.91 8.66581 120.53 8.89419C120.149 9.09718 119.844 9.37631 119.616 9.70618C119.388 10.0361 119.261 10.4167 119.261 10.8227H116.114C116.114 9.90918 116.317 9.12256 116.723 8.43744C117.129 7.75232 117.662 7.19407 118.297 6.73732C118.956 6.28058 119.692 5.9507 120.53 5.72233C121.367 5.49396 122.204 5.39246 123.092 5.39246C123.98 5.39246 124.742 5.49396 125.503 5.69695C126.264 5.89995 126.975 6.20445 127.609 6.61045C128.218 7.01645 128.726 7.52394 129.106 8.10757C129.487 8.69119 129.664 9.40168 129.664 10.2137C129.664 11.0257 129.461 11.6854 129.055 12.2183C128.649 12.7765 128.142 13.2079 127.508 13.5378C126.873 13.8677 126.213 14.096 125.503 14.2483C124.792 14.4005 124.107 14.4513 123.473 14.4513H121.392C121.088 14.4513 120.783 14.502 120.453 14.5782C120.149 14.6797 119.844 14.8065 119.565 14.9842C119.286 15.1618 119.058 15.3648 118.906 15.6439C118.728 15.8976 118.652 16.2275 118.652 16.5828C118.652 16.9888 118.753 17.344 118.982 17.6231C119.21 17.9023 119.489 18.1306 119.794 18.3336C120.098 18.5366 120.479 18.6381 120.834 18.7396C121.215 18.8158 121.545 18.8665 121.849 18.8665C122.306 18.8665 122.788 18.7904 123.321 18.6381C123.854 18.4859 124.361 18.2575 124.869 17.9784C125.351 17.6993 125.782 17.344 126.112 16.8873C126.467 16.4559 126.67 15.9484 126.721 15.4155H129.182V21.3532H126.416L126.112 19.7039L126.213 19.7292Z" fill="white"/>
<path d="M121.189 21.9876C120.377 21.9876 119.591 21.8607 118.855 21.6324C118.144 21.3786 117.485 21.0487 116.952 20.6174C116.419 20.186 115.987 19.6531 115.683 19.0188C115.378 18.3844 115.226 17.6993 115.226 16.9634C115.226 16.126 115.404 15.3648 115.759 14.705C116.114 14.0707 116.571 13.5124 117.155 13.0557C117.738 12.6243 118.398 12.2944 119.185 12.066C119.946 11.8377 120.758 11.7362 121.595 11.7362H123.143C123.397 11.7362 123.727 11.7108 124.082 11.6347C124.437 11.5586 124.767 11.4571 125.122 11.3302C125.427 11.2033 125.706 11.0257 125.909 10.7973C126.087 10.5943 126.188 10.3913 126.188 10.1122C126.188 9.88381 126.112 9.68081 125.985 9.52856C125.833 9.35094 125.63 9.17332 125.376 9.04644C125.097 8.91957 124.793 8.79269 124.437 8.71657C123.651 8.53894 122.737 8.56432 121.925 8.74194C121.494 8.84344 121.088 8.99569 120.758 9.17332C120.428 9.35094 120.149 9.60469 119.946 9.88381C119.743 10.1629 119.667 10.4674 119.667 10.8227V11.1272H115.886V10.8227C115.886 9.85844 116.114 8.99569 116.546 8.25982C116.977 7.54933 117.535 6.94033 118.22 6.48358C118.906 6.02683 119.667 5.67159 120.53 5.44321C122.204 4.98647 124.031 4.98647 125.681 5.41784C126.493 5.62084 127.228 5.95071 127.888 6.38208C128.548 6.81345 129.081 7.34633 129.487 7.9807C129.893 8.64044 130.096 9.40169 130.096 10.2644C130.096 11.1272 129.867 11.8631 129.436 12.472C129.005 13.0557 128.446 13.5378 127.787 13.8677C127.152 14.1975 126.442 14.4513 125.681 14.6035C124.945 14.7558 124.234 14.8319 123.6 14.8319H121.519C121.24 14.8319 120.961 14.8827 120.682 14.9588C120.403 15.0349 120.124 15.1618 119.87 15.314C119.641 15.4663 119.438 15.6439 119.286 15.8723C119.159 16.0753 119.083 16.329 119.083 16.6335C119.083 16.9634 119.159 17.2425 119.362 17.4709C119.565 17.7246 119.794 17.9276 120.098 18.0799C120.403 18.2575 120.733 18.359 121.062 18.4351C121.418 18.5113 121.748 18.562 122.027 18.562C122.433 18.562 122.915 18.4859 123.422 18.3336C123.93 18.1814 124.437 17.9784 124.894 17.6993C125.351 17.4455 125.731 17.0903 126.061 16.6843C126.366 16.2783 126.543 15.8723 126.594 15.3648V15.0857H129.69V21.6577H126.34L126.087 20.3129C125.579 20.7442 124.996 21.0995 124.31 21.3786C123.448 21.7592 122.407 21.9622 121.265 21.9622L121.189 21.9876ZM121.57 12.3705C120.783 12.3705 120.047 12.472 119.337 12.675C118.652 12.878 118.043 13.1825 117.51 13.5632C117.002 13.9438 116.596 14.4259 116.292 14.9842C115.987 15.5424 115.835 16.2021 115.835 16.938C115.835 17.5724 115.962 18.1814 116.241 18.7143C116.495 19.2471 116.876 19.7293 117.332 20.0845C117.814 20.4651 118.373 20.7696 119.032 20.998C119.692 21.2264 120.403 21.3279 121.164 21.3279C122.23 21.3279 123.169 21.1502 123.955 20.795C124.742 20.4397 125.427 20.0084 125.96 19.4501L126.391 19.0188L126.746 20.998H128.929V15.6947H127.051C126.949 16.1768 126.746 16.6335 126.417 17.0395C126.036 17.4963 125.605 17.9023 125.072 18.2068C124.564 18.5113 124.031 18.7396 123.448 18.8919C122.889 19.0441 122.357 19.1456 121.874 19.1456C121.545 19.1456 121.189 19.0949 120.783 19.0188C120.377 18.9426 119.997 18.7904 119.641 18.5874C119.286 18.3844 118.982 18.1306 118.728 17.8008C118.449 17.4709 118.322 17.0395 118.322 16.5574C118.322 16.126 118.423 15.7454 118.626 15.4409C118.829 15.1364 119.083 14.8827 119.388 14.6797C119.692 14.502 120.022 14.3498 120.352 14.2483C120.707 14.1468 121.037 14.096 121.367 14.096H123.448C124.057 14.096 124.716 14.0199 125.402 13.893C126.087 13.7662 126.746 13.5378 127.33 13.2333C127.914 12.9288 128.396 12.5228 128.751 12.0153C129.132 11.5078 129.309 10.9242 129.309 10.1883C129.309 9.45244 129.132 8.79269 128.802 8.23445C128.446 7.6762 127.99 7.19408 127.406 6.81345C126.823 6.43283 126.137 6.12833 125.402 5.95071C123.854 5.54471 122.154 5.57009 120.58 5.97608C119.794 6.17908 119.058 6.50896 118.449 6.94033C117.84 7.34633 117.332 7.90457 116.952 8.53894C116.622 9.09719 116.444 9.73156 116.393 10.4421H118.906C118.956 10.0868 119.083 9.73156 119.286 9.45244C119.54 9.09719 119.895 8.79269 120.301 8.56432C120.707 8.33595 121.164 8.15832 121.646 8.05682C122.56 7.85382 123.549 7.82845 124.437 8.03145C124.843 8.10757 125.224 8.23445 125.528 8.41207C125.858 8.58969 126.137 8.79269 126.34 9.04644C126.569 9.32556 126.696 9.65544 126.696 10.0361C126.696 10.4674 126.543 10.8481 126.239 11.1526C125.96 11.4317 125.63 11.6601 125.224 11.8377C124.843 11.9899 124.463 12.1168 124.057 12.1929C123.651 12.269 123.321 12.2944 123.016 12.2944H121.468L121.57 12.3705Z" fill="white"/>
<path d="M141.398 21.5817C141.398 21.5817 141.195 21.607 140.992 21.6324C140.814 21.6324 140.611 21.6324 140.408 21.6578C140.205 21.6578 140.002 21.6578 139.825 21.6578H139.393C137.617 21.6578 136.374 21.201 135.613 20.3129C134.851 19.3994 134.496 18.0292 134.496 16.1514V8.36137H131.4V6.48363C131.908 6.48363 132.415 6.4075 132.923 6.28063C133.43 6.15375 133.887 5.92538 134.268 5.57013C134.674 5.24026 134.978 4.78351 135.232 4.17452C135.486 3.59089 135.587 2.85502 135.587 1.94153H137.617V5.69701H141.474V8.33599H137.617V16.0753C137.617 17.0649 137.82 17.7247 138.201 18.0799C138.581 18.4098 139.19 18.5874 140.028 18.5874H141.728L141.373 21.5817H141.398Z" fill="white"/>
<path d="M139.825 21.9877H139.393C137.541 21.9877 136.196 21.5056 135.384 20.5159C134.598 19.5517 134.192 18.0799 134.192 16.1515V8.66587H131.096V6.15376H131.4C131.882 6.15376 132.365 6.10301 132.847 5.97614C133.303 5.84927 133.709 5.64627 134.065 5.34177C134.42 5.03727 134.724 4.6059 134.927 4.07303C135.156 3.51478 135.257 2.82966 135.257 1.96691V1.66241H137.922V5.41789H141.779V8.69125H137.922V16.1007C137.922 16.9888 138.074 17.5978 138.404 17.8516C138.734 18.1307 139.267 18.2829 140.028 18.2829H142.083L141.652 21.8354L141.449 21.8862C141.449 21.8862 141.195 21.9369 140.992 21.9369H140.408C140.205 21.9877 140.002 21.9877 139.825 21.9877ZM131.705 8.05688H134.801V16.1768C134.801 17.9531 135.156 19.2979 135.866 20.1353C136.551 20.9473 137.744 21.3787 139.393 21.3787H139.825C140.002 21.3787 140.18 21.3787 140.383 21.3787H140.967C140.967 21.3787 141.068 21.3533 141.094 21.3279L141.398 18.9427H140.053C139.14 18.9427 138.455 18.7397 138.023 18.3591C137.566 17.9531 137.338 17.2172 137.338 16.1261V8.08225H141.195V6.07764H137.338V2.29679H135.917C135.892 3.08341 135.765 3.76853 135.536 4.32677C135.283 4.96115 134.927 5.46864 134.496 5.82389C134.065 6.17914 133.557 6.45826 133.024 6.58514C132.593 6.68664 132.162 6.76276 131.73 6.78814V8.05688H131.705Z" fill="white"/>
<path d="M146.56 14.4259V14.9842C146.56 15.4156 146.636 15.8469 146.813 16.3037C146.991 16.7604 147.245 17.1664 147.575 17.547C147.904 17.9277 148.336 18.2322 148.818 18.4605C149.325 18.6889 149.909 18.8158 150.569 18.8158C151.051 18.8158 151.533 18.765 151.99 18.6635C152.447 18.562 152.878 18.4098 153.233 18.1814C153.588 17.9784 153.868 17.6993 154.096 17.3948C154.324 17.0903 154.426 16.7097 154.426 16.2783H157.522C157.522 16.9634 157.344 17.6485 157.014 18.2829C156.684 18.9427 156.202 19.5009 155.618 20.0084C155.035 20.5159 154.324 20.8965 153.538 21.201C152.751 21.5055 151.888 21.6324 150.975 21.6324H150.087C149.021 21.6324 148.082 21.4294 147.245 21.0488C146.407 20.6428 145.722 20.1353 145.139 19.5009C144.58 18.8665 144.124 18.156 143.819 17.344C143.515 16.5574 143.362 15.7708 143.362 14.9588V12.1676C143.362 11.381 143.515 10.5943 143.844 9.78234C144.174 8.97034 144.631 8.25985 145.215 7.62547C145.798 6.96573 146.534 6.45823 147.372 6.05223C148.209 5.64624 149.173 5.44324 150.239 5.44324H150.746C151.66 5.44324 152.523 5.62086 153.36 5.95073C154.197 6.30598 154.933 6.76273 155.542 7.34635C156.075 7.85385 156.481 8.36135 156.76 8.84347C157.039 9.35096 157.242 9.85846 157.369 10.3913C157.496 10.9242 157.572 11.4825 157.572 12.0914C157.572 12.6751 157.598 13.3094 157.598 13.9692V14.4006H146.458L146.56 14.4259ZM154.654 11.8123C154.654 11.2795 154.553 10.7973 154.324 10.366C154.121 9.93459 153.817 9.55396 153.462 9.24947C153.106 8.94497 152.7 8.71659 152.218 8.53897C151.736 8.36135 151.254 8.28522 150.746 8.28522C150.137 8.28522 149.579 8.38672 149.097 8.61509C148.59 8.81809 148.158 9.09722 147.803 9.42709C147.448 9.75696 147.143 10.1376 146.94 10.5436C146.737 10.9496 146.61 11.381 146.56 11.787H154.629L154.654 11.8123Z" fill="white"/>
<path d="M151 21.9623H150.112C149.021 21.9623 148.006 21.7593 147.143 21.3279C146.28 20.9219 145.545 20.3637 144.936 19.7039C144.352 19.0442 143.87 18.2829 143.565 17.4709C143.261 16.6336 143.083 15.8216 143.083 14.9842V12.193C143.083 11.3556 143.261 10.5182 143.591 9.70622C143.921 8.89423 144.403 8.13298 145.012 7.44786C145.621 6.76274 146.382 6.20449 147.27 5.79849C148.158 5.36712 149.173 5.16412 150.264 5.16412H150.772C151.711 5.16412 152.649 5.34175 153.512 5.697C154.375 6.05224 155.136 6.55974 155.796 7.16874C156.354 7.70161 156.76 8.23448 157.065 8.74198C157.369 9.27485 157.572 9.80772 157.699 10.3913C157.826 10.9496 157.902 11.5332 157.927 12.1422C157.927 12.7258 157.953 13.3602 157.953 14.0453V14.7812H146.813V15.0096C146.813 15.3902 146.889 15.7962 147.042 16.2276C147.194 16.6336 147.422 17.0396 147.752 17.3694C148.057 17.7247 148.437 18.0038 148.894 18.2068C149.681 18.5874 150.848 18.6128 151.863 18.3844C152.294 18.2829 152.675 18.156 153.005 17.9531C153.309 17.7754 153.588 17.5217 153.766 17.2426C153.944 16.9888 154.045 16.6843 154.045 16.3037V15.9992H157.775V16.3037C157.775 17.0396 157.598 17.7754 157.242 18.4605C156.887 19.1457 156.38 19.7547 155.771 20.2875C155.136 20.795 154.4 21.2264 153.588 21.5309C152.776 21.8354 151.863 21.9877 150.924 21.9877L151 21.9623ZM150.315 5.74775C149.3 5.74775 148.387 5.95074 147.6 6.33137C146.788 6.71199 146.103 7.21949 145.545 7.85386C144.986 8.46285 144.53 9.17335 144.225 9.9346C143.921 10.6958 143.768 11.4317 143.768 12.193V14.9842C143.768 15.7201 143.921 16.4813 144.2 17.2426C144.479 18.0038 144.91 18.6889 145.443 19.2979C145.976 19.9069 146.661 20.389 147.448 20.7697C148.234 21.1503 149.148 21.3279 150.137 21.3279H151.026C151.888 21.3279 152.726 21.1757 153.461 20.8965C154.223 20.6174 154.882 20.2368 155.466 19.7547C156.024 19.2979 156.481 18.7397 156.786 18.1307C157.039 17.6232 157.192 17.1157 157.242 16.5828H154.756C154.705 16.9381 154.578 17.2679 154.375 17.5724C154.121 17.9277 153.791 18.2068 153.411 18.4605C153.03 18.6889 152.573 18.8665 152.091 18.968C150.924 19.2218 149.63 19.171 148.716 18.7397C148.184 18.4859 147.727 18.156 147.372 17.7501C147.016 17.3441 146.737 16.8873 146.56 16.4052C146.382 15.9231 146.28 15.4409 146.28 14.9588V14.0961H157.42V13.9946C157.42 13.3348 157.42 12.7005 157.395 12.1168C157.395 11.5586 157.293 11.0003 157.192 10.4928C157.09 9.98535 156.887 9.50322 156.608 9.0211C156.329 8.53898 155.948 8.05686 155.441 7.57473C154.857 7.01649 154.147 6.55974 153.36 6.22987C152.573 5.89999 151.736 5.74775 150.873 5.74775H150.366H150.315ZM154.984 12.1168H146.255V11.7616C146.331 11.3048 146.483 10.8735 146.712 10.4167C146.94 9.95997 147.245 9.55397 147.651 9.19873C148.031 8.84348 148.513 8.53898 149.021 8.31061C150.011 7.87923 151.279 7.85386 152.37 8.23448C152.878 8.41211 153.335 8.66585 153.715 8.99573C154.096 9.3256 154.426 9.7316 154.654 10.2137C154.882 10.6958 155.009 11.2287 155.009 11.8123V12.1168H154.984ZM146.966 11.4825H154.324C154.299 11.1272 154.197 10.7973 154.045 10.4928C153.842 10.0868 153.588 9.75697 153.258 9.47785C152.929 9.19873 152.548 8.99573 152.117 8.84348C151.152 8.5136 150.061 8.56435 149.224 8.9196C148.767 9.1226 148.361 9.37635 148.031 9.68085C147.701 9.98535 147.422 10.3406 147.219 10.7212C147.092 10.975 146.991 11.2287 146.94 11.4825H146.966Z" fill="white"/>
</g>
<defs>
<clipPath id="clip0_15_812">
<rect width="157.953" height="22.0323" fill="white"/>
</clipPath>
</defs>
</svg>
